<svg xmlns="http://www.w3.org/2000/svg" fill="none" viewBox="0 0 256 256" width="60" height="60">
   <defs><linearGradient x1="45.398" y1="28.83" x2="45.398" y2="34.073" gradientUnits="userSpaceOnUse" id="color-1_G7CzLA9Eu2Vu_gr1"><stop offset="0" stop-color="#000000"></stop><stop offset="1" stop-color="#000000"></stop></linearGradient><linearGradient x1="18.483" y1="26.064" x2="18.483" y2="28.677" gradientUnits="userSpaceOnUse" id="color-2_G7CzLA9Eu2Vu_gr2"><stop offset="0" stop-color="#000000"></stop><stop offset="1" stop-color="#000000"></stop></linearGradient><linearGradient x1="29.483" y1="26.064" x2="29.483" y2="28.677" gradientUnits="userSpaceOnUse" id="color-3_G7CzLA9Eu2Vu_gr3"><stop offset="0" stop-color="#000000"></stop><stop offset="1" stop-color="#000000"></stop></linearGradient><linearGradient x1="46.232" y1="7.383" x2="46.232" y2="57.236" gradientUnits="userSpaceOnUse" id="color-4_G7CzLA9Eu2Vu_gr4"><stop offset="0" stop-color="#000000"></stop><stop offset="1" stop-color="#000000"></stop></linearGradient><linearGradient x1="29.484" y1="7.383" x2="29.484" y2="57.236" gradientUnits="userSpaceOnUse" id="color-5_G7CzLA9Eu2Vu_gr5"><stop offset="0" stop-color="#000000"></stop><stop offset="1" stop-color="#000000"></stop></linearGradient><linearGradient x1="38.637" y1="2.277" x2="38.637" y2="9.13" gradientUnits="userSpaceOnUse" id="color-6_G7CzLA9Eu2Vu_gr6"><stop offset="0" stop-color="#000000"></stop><stop offset="1" stop-color="#000000"></stop></linearGradient></defs><g fill="#9bc100" fill-rule="nonzero" stroke="none" stroke-width="1" stroke-linecap="butt" stroke-linejoin="miter" stroke-miterlimit="10" stroke-dasharray="" stroke-dashoffset="0" font-family="none" font-weight="none" font-size="none" text-anchor="none" style="mix-blend-mode: normal"><path d="M64,256c-35.34622,0 -64,-28.65378 -64,-64v-128c0,-35.34622 28.65378,-64 64,-64h128c35.34622,0 64,28.65378 64,64v128c0,35.34622 -28.65378,64 -64,64z" id="shape"></path></g><g fill="none" fill-rule="nonzero" stroke="none" stroke-width="1" stroke-linecap="butt" stroke-linejoin="miter" stroke-miterlimit="10" stroke-dasharray="" stroke-dashoffset="0" font-family="none" font-weight="none" font-size="none" text-anchor="none" style="mix-blend-mode: normal"><g transform="scale(4,4)"><path d="M40.635,36.574l-1.77,-0.933l3.21,-6.086c0.233,-0.445 0.692,-0.727 1.196,-0.71c0.504,0.007 0.955,0.293 1.177,0.747l1.469,3.022l1.271,-3.243c0.197,-0.501 0.673,-0.833 1.212,-0.844c0.509,-0.019 1.027,0.301 1.243,0.794l2.288,5.174l-1.83,0.809l-1.639,-3.708l-1.244,3.164c-0.266,0.538 -0.724,0.822 -1.231,0.825c-0.003,0 -0.006,0 -0.008,0c-0.506,0 -0.963,-0.278 -1.195,-0.728l-1.557,-3.201zM43.845,30.487v0.001c0,0 0,0 0,-0.001zM47.813,30.129c0.001,0 0.001,0.001 0.001,0.002z" fill="url(#color-1_G7CzLA9Eu2Vu_gr1)"></path><circle cx="18.483" cy="27.5" r="1.5" fill="url(#color-2_G7CzLA9Eu2Vu_gr2)"></circle><circle cx="29.483" cy="27.5" r="1.5" fill="url(#color-3_G7CzLA9Eu2Vu_gr3)"></circle><g><path d="M48.851,37.008c-0.323,-1.214 -1.272,-2.182 -2.477,-2.524c-0.993,-0.283 -2.022,-0.162 -2.893,0.341l1.002,1.731c0.281,-0.163 0.745,-0.319 1.342,-0.149c0.523,0.149 0.952,0.587 1.094,1.117c0.144,0.539 0.045,1.068 -0.279,1.49c-0.5,0.651 -1.455,0.837 -2.156,0.431l-1.002,1.73c0.459,0.266 0.973,0.422 1.502,0.47v16.355h2v-16.737c0.477,-0.244 0.904,-0.59 1.243,-1.032c0.7,-0.913 0.927,-2.087 0.624,-3.223z" fill="url(#color-4_G7CzLA9Eu2Vu_gr4)"></path><path d="M31.983,8c7.168,0 13,5.832 13,13v9.693l0.934,1.921l1.066,-2.72v-8.894c0,-8.271 -6.729,-15 -15,-15c-7.709,0 -14.123,5.774 -14.92,13.432v0c-0.049,0.485 -0.072,0.979 -0.075,1.47c-0.719,0.389 -1.385,0.891 -1.956,1.502c-1.403,1.502 -2.146,3.508 -2.039,5.504c0.106,1.947 0.956,3.741 2.36,5.056c-0.229,0.465 -0.37,0.982 -0.37,1.535c0,1.595 1.079,2.929 2.541,3.35c-1.941,1.486 -3.263,3.742 -3.502,6.308c-0.51,0.172 -0.969,0.48 -1.325,0.899c-0.571,0.672 -0.816,1.561 -0.674,2.438c0.232,1.429 1.55,2.506 3.067,2.506h1.994c0.465,2.279 2.484,4 4.899,4h0.171c0.169,0.477 0.46,0.893 0.829,1.225v2.775h2v-2h3.979c4.975,0 9.021,-4.047 9.021,-9.021v-1.979c0,-4.962 -4.037,-9 -9,-9h-6h-4.5c-0.827,0 -1.5,-0.673 -1.5,-1.5c0,-0.827 0.673,-1.5 1.5,-1.5h6.918c1.338,1.237 3.12,2 5.082,2c4.136,0 7.5,-3.364 7.5,-7.5c0,-4.136 -3.364,-7.5 -7.5,-7.5c-1.92,0 -3.667,0.731 -4.995,1.921c-1.4,-1.255 -3.243,-1.962 -5.116,-1.921c-0.453,0.007 -0.903,0.063 -1.345,0.154c0.011,-0.172 0.009,-0.346 0.027,-0.516c0.689,-6.634 6.248,-11.638 12.929,-11.638zM22.983,38h6c3.859,0 7,3.14 7,7v1.979c0,3.872 -3.149,7.021 -7.021,7.021h-3.979c-0.552,0 -1,-0.449 -1,-1v-1h-2c-1.302,0 -2.402,-0.839 -2.816,-2h8.816v-2h-12.893c-0.537,0 -1.018,-0.362 -1.092,-0.825c-0.05,-0.303 0.029,-0.595 0.223,-0.822c0.19,-0.225 0.468,-0.353 0.762,-0.353h1v-1c0,-3.86 3.141,-7 7,-7zM30.483,22c3.032,0 5.5,2.467 5.5,5.5c0,3.033 -2.468,5.5 -5.5,5.5c-3.032,0 -5.5,-2.467 -5.5,-5.5c0,-3.033 2.468,-5.5 5.5,-5.5zM20.401,22c1.396,-0.022 2.755,0.502 3.785,1.44c-0.758,1.172 -1.203,2.564 -1.203,4.06c0,1.264 0.317,2.454 0.872,3.5h-5.372c-0.649,0 -1.249,0.189 -1.771,0.498c-1.024,-0.963 -1.645,-2.275 -1.721,-3.697c-0.079,-1.455 0.469,-2.924 1.502,-4.031c1.031,-1.103 2.456,-1.749 3.908,-1.77z" fill="url(#color-5_G7CzLA9Eu2Vu_gr5)"></path></g><path d="M46.884,8.891c-0.439,-2.43 -2.367,-4.356 -4.797,-4.792c-0.55,-0.099 -1.095,-0.114 -1.628,-0.066c-0.895,-1.007 -2.109,-1.728 -3.473,-1.951c-2.976,-0.487 -5.777,1.252 -6.693,4.022c0.56,-0.063 1.123,-0.104 1.69,-0.104c0.18,0 0.355,0.024 0.534,0.03c0.806,-1.421 2.424,-2.257 4.146,-1.974c0.568,0.093 1.096,0.32 1.56,0.636c-0.848,0.442 -1.596,1.075 -2.16,1.887c0.683,0.194 1.346,0.43 1.986,0.714c0.426,-0.463 0.954,-0.81 1.534,-1.029c0.156,0.322 0.277,0.664 0.338,1.024c0.259,1.523 -0.343,3.031 -1.57,3.935l1.186,1.61c1.841,-1.355 2.743,-3.609 2.355,-5.881c-0.052,-0.305 -0.129,-0.603 -0.228,-0.892c0.023,0.004 0.045,0.004 0.068,0.008c1.587,0.285 2.896,1.592 3.182,3.178c0.204,1.132 -0.053,2.234 -0.694,3.109c0.405,0.571 0.769,1.17 1.092,1.796c1.323,-1.38 1.92,-3.325 1.572,-5.26z" fill="url(#color-6_G7CzLA9Eu2Vu_gr6)"></path></g></g>

</svg>
